name Walk7.mot
datacolumns 19
datarows 10
range 2.20500000 2.21400000
endheader

                time	   L_ground_force_vx	   L_ground_force_vy	   L_ground_force_vz	   L_ground_force_px	   L_ground_force_py	   L_ground_force_pz	   R_ground_force_vx	   R_ground_force_vy	   R_ground_force_vz	   R_ground_force_px	   R_ground_force_py	   R_ground_force_pz	   L_ground_torque_x	   L_ground_torque_y	   L_ground_torque_z	   R_ground_torque_x	   R_ground_torque_y	   R_ground_torque_z	
          2.20500000	        -24.60776669	        532.11603481	         29.41734199	          0.46953743	          0.00000000	          0.19270969	          0.00000000	          0.00000000	          0.00000000	          0.00000000	          0.00000000	          0.00000000	          0.00000000	         -1.87355695	          0.00000000	          0.00000000	          0.00000000	          0.00000000	
          2.20600000	        -24.12167942	        531.06593815	         29.83044196	          0.46991143	          0.00000000	          0.19268776	          0.00000000	          0.00000000	          0.00000000	          0.00000000	          0.00000000	          0.00000000	          0.00000000	         -1.89026817	          0.00000000	          0.00000000	          0.00000000	          0.00000000	
          2.20700000	        -23.64170822	        530.07881428	         30.27189936	          0.47031376	          0.00000000	          0.19261619	          0.00000000	          0.00000000	          0.00000000	          0.00000000	          0.00000000	          0.00000000	          0.00000000	         -1.90065800	          0.00000000	          0.00000000	          0.00000000	          0.00000000	
          2.20800000	        -23.17061404	        529.17156051	         30.72960563	          0.47075293	          0.00000000	          0.19250360	          0.00000000	          0.00000000	          0.00000000	          0.00000000	          0.00000000	          0.00000000	          0.00000000	         -1.91212178	          0.00000000	          0.00000000	          0.00000000	          0.00000000	
          2.20900000	        -22.70691279	        528.37661159	         31.18910242	          0.47123598	          0.00000000	          0.19238802	          0.00000000	          0.00000000	          0.00000000	          0.00000000	          0.00000000	          0.00000000	          0.00000000	         -1.93008550	          0.00000000	          0.00000000	          0.00000000	          0.00000000	
          2.21000000	        -22.24490751	        527.71172196	         31.64005869	          0.47174087	          0.00000000	          0.19229824	          0.00000000	          0.00000000	          0.00000000	          0.00000000	          0.00000000	          0.00000000	          0.00000000	         -1.95292333	          0.00000000	          0.00000000	          0.00000000	          0.00000000	
          2.21100000	        -21.77972973	        527.17393621	         32.08298233	          0.47222162	          0.00000000	          0.19224109	          0.00000000	          0.00000000	          0.00000000	          0.00000000	          0.00000000	          0.00000000	          0.00000000	         -1.97382349	          0.00000000	          0.00000000	          0.00000000	          0.00000000	
          2.21200000	        -21.31337981	        526.74207722	         32.52094238	          0.47265356	          0.00000000	          0.19221860	          0.00000000	          0.00000000	          0.00000000	          0.00000000	          0.00000000	          0.00000000	          0.00000000	         -1.98677774	          0.00000000	          0.00000000	          0.00000000	          0.00000000	
          2.21300000	        -20.85203709	        526.36365328	         32.94699755	          0.47304372	          0.00000000	          0.19222246	          0.00000000	          0.00000000	          0.00000000	          0.00000000	          0.00000000	          0.00000000	          0.00000000	         -1.98915964	          0.00000000	          0.00000000	          0.00000000	          0.00000000	
          2.21400000	        -20.40092318	        525.95896025	         33.34892257	          0.47339608	          0.00000000	          0.19222785	          0.00000000	          0.00000000	          0.00000000	          0.00000000	          0.00000000	          0.00000000	          0.00000000	         -1.98280806	          0.00000000	          0.00000000	          0.00000000	          0.00000000	
